<svg xmlns="http://www.w3.org/2000/svg" viewBox="0 0 24 24" width="24" height="24"><g fill=""><path d="M8.33 15.35v.22c.001 1.31.32 2.6.93 3.76L11.23 23h1.54l1.97-3.68a8.04 8.04 0 00.93-3.75v-4.13l-1.34.72v3.41a6.68 6.68 0 01-.78 3.12L12 21.57l-1.55-2.88a6.679 6.679 0 01-.78-3.12v-.94z"></path><path d="M12.04 15.47a.96.96 0 00.96-.96v-1.65l-2 1.07v.58a.96.96 0 00.96.96zM.32 19.42l4.16-2.21c.382-.2.709-.492.95-.85l1.03-1.52 11.61-6.17h1.91a2.55 2.55 0 001.21-.3l2.48-1.31V2.7l-5.03 2.67a2.475 2.475 0 00-1.31 2.16l-1.66.88v-.04a8.116 8.116 0 00-.94-3.79L12.79 1h-1.58L9.27 4.59a8.048 8.048 0 00-.94 3.78v3.95l-2.29 1.22-.05-.04a2.494 2.494 0 00-2.58-.13L.32 15.01zM19.27 6.56l3.06-1.62v1.3l-1.77.94a1.3 1.3 0 01-.58.14H18.7a1.1 1.1 0 01.57-.76zm-9.6 1.81a6.738 6.738 0 01.79-3.14L12 2.39l1.54 2.84c.515.967.786 2.045.79 3.14v.76L13 9.84v-.37a.959.959 0 00-.96-.96h-.08a.96.96 0 00-.96.96v1.43l-1.33.71zm-8 7.45l2.37-1.26a1.137 1.137 0 011-.04l-.73 1.09c-.12.17-.278.31-.46.41l-2.18 1.16z"></path></g></svg>