<svg viewBox="0 0 24 24" xmlns="http://www.w3.org/2000/svg" width="24" height="24"><path d="M18.85 16.34c.56-1.1 1.72-3.76.73-5.24l-8.07-8.09S10.3 1.82 8.54 1.82c-2.39 0-6.59 4.83-7.13 6.45-.62 1.88 1.15 3.62 1.23 3.69.27.28 4.51 4.62 7.46 7.07.93.77 1.62 1.27 2.12 1.52 1.05.53 2.73-.47 3.73-1.21L20 23.39l2.95-2.95-4.11-4.11.01.01zm-2.78 1.21l-.47.38c-1.07.85-2.45 1.55-2.77 1.42-.28-.14-.83-.49-1.87-1.35-2.93-2.44-7.33-6.95-7.37-6.99l-.46.45.45-.46S2.34 9.76 2.7 8.71c.44-1.32 4.22-5.52 5.84-5.52 1.18 0 2.01.79 2.02.8l7.92 7.92c.47.83-.33 2.96-1.05 4.23l-.26.45 3.88 3.88-1.04 1.04-3.94-3.94v-.02z" fill=""></path></svg>