<svg width="100" height="100" viewBox="0 0 100 100" fill="none" xmlns="http://www.w3.org/2000/svg">
<path d="M41.569 29C45.4423 29.0003 49.2159 30.1949 52.3486 32.4125L68.3638 43.7529L85.2114 51.3203C87.8365 52.5003 90.0594 54.3878 91.617 56.7595C93.1745 59.1311 94.0015 61.8875 94 64.7025V64.7667C94 65.8876 94.0073 69.8212 90.7075 73.3265C87.327 76.9139 81.2956 79.2376 71.154 78.9806H14.8549C13.1036 78.9814 11.3914 78.4763 9.93499 77.5293C8.47861 76.5823 7.34355 75.236 6.67347 73.6607C6.00339 72.0854 5.8284 70.3519 6.17067 68.6798C6.51294 67.0076 7.35706 65.4719 8.59621 64.267L8.91153 63.96C9.15222 63.7256 9.34313 63.4474 9.47336 63.1411C9.60358 62.8349 9.67057 62.5067 9.6705 62.1753V38.0916C9.6705 35.0432 12.2114 32.5695 15.3426 32.5695C17.3775 32.5695 19.3317 33.3548 20.769 34.7577L25.8544 39.7086H32.0838L30.0196 33.6975C29.8359 33.1606 29.786 32.5889 29.8739 32.0295C29.9618 31.4701 30.1851 30.9391 30.5254 30.4802C30.8656 30.0214 31.313 29.6479 31.8307 29.3905C32.3484 29.1332 32.9215 28.9993 33.5027 29H41.569ZM14.7779 68.2649C14.5653 68.5219 14.338 68.7682 14.0923 69.0038L13.777 69.3108C13.5643 69.5174 13.4194 69.7809 13.3607 70.0678C13.302 70.3547 13.332 70.6522 13.4471 70.9224C13.5621 71.1927 13.757 71.4236 14.007 71.586C14.2569 71.7483 14.5508 71.8348 14.8513 71.8344H71.3044C80.4303 72.0772 83.9501 69.939 85.3067 68.4969C86.6707 67.0477 86.6707 65.4735 86.6707 64.7061V64.6989C86.6707 63.4496 86.3554 62.2467 85.7834 61.1829C84.3168 61.3935 83.4441 62.1753 81.9335 63.6495L81.8346 63.7423C79.9573 65.5628 77.1891 68.2649 72.001 68.2649H14.7779ZM79.1433 56.4604L67.8065 51.3703L63.8467 57.1529L57.7456 53.1907L61.4928 47.7186L58.7869 45.8018L54.6805 51.7986L48.5794 47.8364L52.8509 41.6005L48.0331 38.188C46.1537 36.857 43.8895 36.1397 41.5654 36.1391H38.5882L42.2547 46.8477H22.8222L17.0035 41.1864V61.1258H72.001C74.0542 61.1258 74.9452 60.3477 76.7418 58.6022L76.8371 58.5094C77.4788 57.8811 78.2304 57.1529 79.147 56.464L79.1433 56.4604Z" fill="black"/>
</svg>
