<svg width="24" height="24" viewBox="0 0 24 24" fill="none" xmlns="http://www.w3.org/2000/svg">
<path d="M23.994 6.12401C24.0017 5.38705 23.9211 4.65181 23.754 3.93401C23.437 2.62401 22.692 1.62401 21.574 0.891014C21.0037 0.524844 20.3652 0.277886 19.697 0.165014C19.1801 0.0760096 18.6573 0.0258692 18.133 0.0150142C18.093 0.0120142 18.05 0.00501416 18.009 0.00201416H5.986C5.834 0.0120142 5.683 0.0190142 5.531 0.0280142C4.784 0.0710142 4.041 0.151014 3.338 0.428014C2.002 0.958014 1.038 1.88001 0.473 3.20801C0.281 3.65601 0.181 4.13301 0.11 4.61601C0.054 5.00801 0.022 5.40101 0.01 5.79601C0.01 5.82801 0.003 5.85801 0 5.88901V18.112C0.01 18.252 0.017 18.395 0.027 18.536C0.077 19.351 0.181 20.16 0.524 20.909C1.174 22.329 2.262 23.262 3.758 23.71C4.178 23.837 4.614 23.897 5.051 23.938C5.606 23.991 6.161 23.998 6.718 23.998H17.748C18.2729 23.9977 18.7973 23.9643 19.318 23.898C20.14 23.792 20.914 23.548 21.613 23.088C22.4421 22.5521 23.0957 21.7847 23.493 20.881C23.679 20.461 23.786 20.011 23.863 19.557C23.976 18.882 24.001 18.199 24 17.517C23.998 13.717 24 9.92201 23.997 6.12401H23.994ZM17.571 10.114V15.826C17.571 16.243 17.513 16.653 17.327 17.032C17.037 17.622 16.567 17.994 15.939 18.172C15.589 18.272 15.233 18.329 14.869 18.345C13.919 18.39 13.096 17.745 12.926 16.809C12.8546 16.4049 12.9174 15.9885 13.1048 15.6234C13.2923 15.2583 13.594 14.9646 13.964 14.787C14.287 14.627 14.634 14.537 14.982 14.463C15.36 14.381 15.74 14.31 16.116 14.223C16.39 14.16 16.573 13.993 16.626 13.707C16.6396 13.6436 16.6463 13.5789 16.646 13.514C16.646 11.699 16.646 9.88401 16.644 8.07101C16.6433 8.00848 16.6346 7.9463 16.618 7.88601C16.578 7.73601 16.468 7.64301 16.314 7.65201C16.154 7.66201 15.996 7.68701 15.839 7.71801C15.079 7.86801 14.319 8.02101 13.559 8.17401L11.234 8.64401L9.86 8.92201C9.844 8.92501 9.828 8.93201 9.812 8.93501C9.535 9.01201 9.435 9.13801 9.422 9.42501C9.42 9.46701 9.422 9.51101 9.422 9.55501C9.42 12.157 9.422 14.759 9.419 17.36C9.419 17.78 9.372 18.196 9.204 18.587C8.926 19.227 8.434 19.627 7.77 19.82C7.42 19.92 7.06 19.98 6.695 19.992C5.735 20.028 4.94 19.392 4.775 18.448C4.635 17.636 5.005 16.763 5.929 16.373C6.286 16.223 6.659 16.141 7.037 16.063C7.324 16.003 7.612 15.947 7.897 15.886C8.28 15.803 8.48 15.563 8.497 15.172V15.022C8.497 12.062 8.497 9.10001 8.499 6.14001C8.499 6.01701 8.512 5.89001 8.541 5.77001C8.611 5.48501 8.814 5.32201 9.087 5.25201C9.342 5.18601 9.602 5.14001 9.861 5.08701C10.594 4.93701 11.327 4.79101 12.061 4.64301L14.331 4.18301C15.001 4.04901 15.671 3.91301 16.341 3.78001C16.561 3.73701 16.783 3.69201 17.004 3.67401C17.314 3.64901 17.527 3.84401 17.558 4.15601C17.566 4.22901 17.57 4.30401 17.57 4.37901C17.572 6.28901 17.572 8.20101 17.57 10.111L17.571 10.114Z" fill="black"/>
</svg>
